<svg width="100" height="100" viewBox="0 0 100 100" fill="none" xmlns="http://www.w3.org/2000/svg">
<g clip-path="url(#clip0_21_14)">
<g filter="url(#filter0_d_21_14)">
<path d="M2 79V22.36H7.76V79H2ZM10.64 79V22.36H19.28V79H10.64ZM22.16 79V22.36H25.04V79H22.16Z" fill="#E50000"/>
<path d="M33.6875 79V22.36H39.4475V79H33.6875ZM48.0875 79V22.36H50.9675V79H48.0875ZM53.8475 79V22.36H56.7275V79H53.8475Z" fill="#5950C9"/>
<path d="M65.375 79V22.36H68.255V79H65.375ZM74.015 79V22.36H82.655V79H74.015ZM88.415 79V22.36H94.175V79H88.415Z" fill="#7CB72E"/>
</g>
</g>
<defs>
<filter id="filter0_d_21_14" x="-2" y="22.36" width="100.175" height="64.64" filterUnits="userSpaceOnUse" color-interpolation-filters="sRGB">
<feFlood flood-opacity="0" result="BackgroundImageFix"/>
<feColorMatrix in="SourceAlpha" type="matrix" values="0 0 0 0 0 0 0 0 0 0 0 0 0 0 0 0 0 0 127 0" result="hardAlpha"/>
<feOffset dy="4"/>
<feGaussianBlur stdDeviation="2"/>
<feComposite in2="hardAlpha" operator="out"/>
<feColorMatrix type="matrix" values="0 0 0 0 0 0 0 0 0 0 0 0 0 0 0 0 0 0 0.25 0"/>
<feBlend mode="normal" in2="BackgroundImageFix" result="effect1_dropShadow_21_14"/>
<feBlend mode="normal" in="SourceGraphic" in2="effect1_dropShadow_21_14" result="shape"/>
</filter>
<clipPath id="clip0_21_14">
<rect width="100" height="100" fill="white"/>
</clipPath>
</defs>
</svg>
